<svg width="22" height="20" viewBox="0 0 22 20" fill="none" xmlns="http://www.w3.org/2000/svg">
<path d="M11.0002 14.3299C8.61017 14.3299 6.67017 12.3899 6.67017 9.99992C6.67017 7.60992 8.61017 5.66992 11.0002 5.66992C13.3902 5.66992 15.3302 7.60992 15.3302 9.99992C15.3302 12.3899 13.3902 14.3299 11.0002 14.3299ZM11.0002 7.16992C9.44017 7.16992 8.17017 8.43992 8.17017 9.99992C8.17017 11.5599 9.44017 12.8299 11.0002 12.8299C12.5602 12.8299 13.8302 11.5599 13.8302 9.99992C13.8302 8.43992 12.5602 7.16992 11.0002 7.16992Z" fill="#788194"/>
<path d="M11.0001 19.02C7.24008 19.02 3.69008 16.82 1.25008 13C0.190078 11.35 0.190078 8.65998 1.25008 6.99998C3.70008 3.17998 7.25008 0.97998 11.0001 0.97998C14.7501 0.97998 18.3001 3.17998 20.7401 6.99998C21.8001 8.64998 21.8001 11.34 20.7401 13C18.3001 16.82 14.7501 19.02 11.0001 19.02ZM11.0001 2.47998C7.77008 2.47998 4.68008 4.41998 2.52008 7.80998C1.77008 8.97998 1.77008 11.02 2.52008 12.19C4.68008 15.58 7.77008 17.52 11.0001 17.52C14.2301 17.52 17.3201 15.58 19.4801 12.19C20.2301 11.02 20.2301 8.97998 19.4801 7.80998C17.3201 4.41998 14.2301 2.47998 11.0001 2.47998Z" fill="#788194"/>
</svg>
